<svg width="46" height="46" viewBox="0 0 46 46" fill="none" xmlns="http://www.w3.org/2000/svg">
<rect width="46" height="46" rx="23" fill="#CEF680"/>
<path d="M19.5833 27.2708H26.4167M22.1609 15.1109L16.3677 19.6168C15.9805 19.918 15.7869 20.0686 15.6474 20.2572C15.5238 20.4242 15.4317 20.6124 15.3757 20.8125C15.3125 21.0384 15.3125 21.2837 15.3125 21.7743V27.9542C15.3125 28.9109 15.3125 29.3893 15.4987 29.7547C15.6625 30.0762 15.9238 30.3375 16.2453 30.5013C16.6107 30.6875 17.0891 30.6875 18.0458 30.6875H27.9542C28.9109 30.6875 29.3893 30.6875 29.7547 30.5013C30.0762 30.3375 30.3375 30.0762 30.5013 29.7547C30.6875 29.3893 30.6875 28.9109 30.6875 27.9542V21.7743C30.6875 21.2837 30.6875 21.0384 30.6243 20.8125C30.5683 20.6124 30.4762 20.4242 30.3526 20.2572C30.2131 20.0686 30.0195 19.918 29.6323 19.6168L23.8391 15.1109C23.539 14.8775 23.3889 14.7608 23.2232 14.716C23.077 14.6764 22.923 14.6764 22.7768 14.716C22.6111 14.7608 22.461 14.8775 22.1609 15.1109Z" stroke="#155546" stroke-width="1.70833" stroke-linecap="round" stroke-linejoin="round"/>
</svg>
