<svg width="617" height="503" viewBox="0 0 617 503" fill="none" xmlns="http://www.w3.org/2000/svg">
<path fill-rule="evenodd" clip-rule="evenodd" d="M289.027 1.17038C277.25 3.08406 270.175 5.08892 259.354 9.57707C255.047 11.364 203.662 39.7104 145.166 72.571C25.066 140.036 24.4904 140.419 12.2872 160.826C-0.156952 181.639 0.727279 171.336 0.184913 301.856C-0.344471 429.788 -0.321388 430.184 8.58294 447.746C22.7393 475.663 53.419 495.725 89.9523 500.955C109 503.682 508 503.682 527.048 500.955C563.581 495.725 594.261 475.663 608.417 447.746C617.321 430.184 617.344 429.788 616.815 301.856C616.273 171.192 617.184 181.702 604.547 160.53C592.499 140.348 588.759 137.871 469.075 70.8077C411.811 38.7192 360.207 10.6263 354.399 8.37746C348.592 6.12984 339.946 3.45472 335.186 2.43511C322.831 -0.211591 301.184 -0.80488 289.027 1.17038Z" fill="#CEF680"/>
</svg>
